<svg version="1.1" id="Layer_1" xmlns="http://www.w3.org/2000/svg" xmlns:xlink="http://www.w3.org/1999/xlink" x="0px" y="0px"
	 width="100%" viewBox="0 0 273 150" enable-background="new 0 0 273 150" xml:space="preserve">
<path fill="#000000" opacity="1.000000" stroke="none" 
	d="
M274.000000,138.000000 
	C274.000000,142.331085 274.000000,146.662155 274.000000,150.994934 
	C183.049545,150.996613 92.099098,150.996613 1.074325,150.996613 
	C1.074325,101.075630 1.074325,51.151123 1.074325,1.113306 
	C91.877045,1.113306 182.754272,1.113306 274.000000,1.113306 
	C274.000000,45.020210 274.000000,89.041443 273.566620,133.515518 
	C266.610809,133.583618 260.092773,133.031876 253.564728,132.858963 
	C246.377792,132.668610 239.181625,132.826508 231.825562,132.500732 
	C228.601715,131.435562 229.034729,129.524429 229.373230,127.007744 
	C229.776566,124.008980 229.180222,120.875755 229.044098,117.556305 
	C229.071182,117.311821 228.833160,116.881287 228.847641,116.451309 
	C228.852737,113.726036 228.843353,111.430740 228.952545,108.903938 
	C229.051056,108.500191 229.031036,108.327957 229.226044,108.016312 
	C229.297684,107.532204 229.154312,107.187515 229.041595,106.589546 
	C228.993713,106.185410 228.915161,106.034546 228.867065,105.457199 
	C229.276352,103.511536 229.968414,101.995399 229.983261,100.472672 
	C230.081375,90.410172 230.238327,80.339424 229.902603,70.287178 
	C229.808594,67.472221 228.123734,64.710403 227.163315,61.903793 
	C227.158020,61.883377 227.119080,61.867130 227.079697,61.503185 
	C226.405899,60.389641 225.771500,59.640045 225.082275,58.947071 
	C225.027451,59.003693 225.126389,58.883976 225.082214,58.539394 
	C224.085266,56.774746 223.132507,55.354675 222.178558,53.904648 
	C222.177399,53.874683 222.118027,53.866299 222.078018,53.546509 
	C221.404709,52.450706 220.771408,51.674690 220.071655,50.949509 
	C220.005219,51.000340 220.133255,50.893856 220.086243,50.570450 
	C219.399002,49.460621 218.758774,48.674202 218.073502,47.939060 
	C218.028458,47.990337 218.137985,47.908714 218.088501,47.561951 
	C217.078033,45.782337 216.117050,44.349491 215.113693,42.947250 
	C215.071335,42.977859 215.133087,42.893688 215.086182,42.572243 
	C214.407135,41.468079 213.774979,40.685352 213.071045,39.944183 
	C212.999252,39.985741 213.145874,39.911934 213.092819,39.571251 
	C212.380020,38.353127 211.720276,37.475681 211.122559,36.444626 
	C211.184586,36.291019 211.010040,36.009407 210.999695,35.742004 
	C210.705048,35.279472 210.420761,35.084339 210.085449,34.921227 
	C210.034439,34.953247 210.118301,34.866611 210.078140,34.546364 
	C209.403244,33.449310 208.768494,32.672504 208.086517,31.932827 
	C208.039261,31.969959 208.114471,31.876303 208.030838,31.630581 
	C207.646027,31.274847 207.344833,31.164837 206.722931,30.881788 
	C204.361328,27.294525 202.515686,23.743258 200.236282,20.496506 
	C196.305481,14.897583 192.104965,9.488042 187.843903,3.592198 
	C172.797958,3.177864 157.925766,3.170360 142.585907,3.094705 
	C132.108231,3.065953 122.098236,3.105352 111.686546,3.225849 
	C108.741280,3.320774 106.196785,3.295977 103.654335,3.356969 
	C99.211884,3.463540 94.372490,2.541292 91.060677,6.553524 
	C86.115288,12.544823 81.500923,18.808292 76.602516,24.839653 
	C67.596687,35.928448 58.330727,46.810375 49.520153,58.050495 
	C47.055691,61.194542 45.805653,65.290520 43.595364,69.134369 
	C43.128128,89.073036 43.114697,108.827690 42.913689,128.580414 
	C42.895618,130.356323 41.664932,132.119888 40.575500,133.937378 
	C32.841656,134.328323 25.492615,134.333527 18.230694,135.131531 
	C13.325665,135.670517 7.882720,135.376389 2.966085,140.032639 
	C5.334859,140.924835 6.730702,141.755432 8.211472,141.954605 
	C14.069208,142.742538 19.939079,143.676605 25.831039,143.924484 
	C38.073517,144.439529 50.413136,143.768265 62.566723,145.012161 
	C81.112701,146.910278 99.575562,148.650223 118.230766,147.016373 
	C125.321053,146.395386 132.466309,146.430191 139.573410,145.965591 
	C147.859863,145.423904 156.123138,144.496735 164.413391,144.054306 
	C170.059067,143.753006 175.736496,144.103638 181.394730,143.962814 
	C185.935791,143.849777 190.469406,143.436340 195.224045,143.528305 
	C200.517426,143.933594 205.595993,144.084839 210.667694,143.959000 
	C214.117783,143.873383 217.558228,143.399765 221.470322,143.065186 
	C239.477493,143.275818 256.981873,143.154114 274.000000,138.000000 
z"/>
<path fill="#09917A" opacity="1.000000" stroke="none" 
	d="
M274.000000,137.600006 
	C256.981873,143.154114 239.477493,143.275818 221.003525,143.010040 
	C211.715042,143.044983 203.360672,143.100616 195.006317,143.156235 
	C190.469406,143.436340 185.935791,143.849777 181.394730,143.962814 
	C175.736496,144.103638 170.059067,143.753006 164.413391,144.054306 
	C156.123138,144.496735 147.859863,145.423904 139.573410,145.965591 
	C132.466309,146.430191 125.321053,146.395386 118.230766,147.016373 
	C99.575562,148.650223 81.112701,146.910278 62.566723,145.012161 
	C50.413136,143.768265 38.073517,144.439529 25.831039,143.924484 
	C19.939079,143.676605 14.069208,142.742538 8.211472,141.954605 
	C6.730702,141.755432 5.334859,140.924835 2.966085,140.032639 
	C7.882720,135.376389 13.325665,135.670517 18.230694,135.131531 
	C25.492615,134.333527 32.841656,134.328323 40.924133,134.010071 
	C42.402000,134.053238 43.109337,134.071930 43.857719,134.494278 
	C43.738369,138.824249 46.424809,138.896881 49.248405,138.929306 
	C73.679871,139.209900 98.118027,140.023026 122.540512,139.686218 
	C152.592484,139.271759 182.632080,137.927795 212.674866,136.921005 
	C216.478592,136.793518 220.309036,136.498520 224.046768,135.831192 
	C225.588486,135.555939 226.918091,134.092422 228.702469,133.125427 
	C230.037018,132.998550 231.013245,132.915619 231.989487,132.832687 
	C239.181625,132.826508 246.377792,132.668610 253.564728,132.858963 
	C260.092773,133.031876 266.610809,133.583618 273.566620,133.984177 
	C274.000000,135.066666 274.000000,136.133347 274.000000,137.600006 
z"/>
<path fill="#898B87" opacity="1.000000" stroke="none" 
	d="
M228.344177,133.169357 
	C226.918091,134.092422 225.588486,135.555939 224.046768,135.831192 
	C220.309036,136.498520 216.478592,136.793518 212.674866,136.921005 
	C182.632080,137.927795 152.592484,139.271759 122.540512,139.686218 
	C98.118027,140.023026 73.679871,139.209900 49.248405,138.929306 
	C46.424809,138.896881 43.738369,138.824249 43.921516,134.020386 
	C43.962357,111.745171 43.980446,90.347496 43.998531,68.949829 
	C45.805653,65.290520 47.055691,61.194542 49.520153,58.050495 
	C58.330727,46.810375 67.596687,35.928448 76.602516,24.839653 
	C81.500923,18.808292 86.115288,12.544823 91.060677,6.553524 
	C94.372490,2.541292 99.211884,3.463540 103.654335,3.356969 
	C106.196785,3.295977 108.741280,3.320774 112.002808,3.485939 
	C122.852486,3.725958 132.984222,3.786985 143.574890,3.898119 
	C158.695099,3.965163 173.356369,3.982099 188.017639,3.999032 
	C192.104965,9.488042 196.305481,14.897583 200.236282,20.496506 
	C202.515686,23.743258 204.361328,27.294525 206.721542,31.237957 
	C207.398758,31.803543 207.756607,31.839924 208.114471,31.876303 
	C208.114471,31.876303 208.039261,31.969959 207.807266,32.267120 
	C208.422943,33.331722 209.270630,34.099167 210.118301,34.866611 
	C210.118301,34.866611 210.034439,34.953247 209.816681,35.257339 
	C210.069290,35.710758 210.539658,35.860081 211.010040,36.009407 
	C211.010040,36.009407 211.184586,36.291019 210.868561,36.800247 
	C211.416992,38.176956 212.281433,39.044445 213.145874,39.911934 
	C213.145874,39.911934 212.999252,39.985741 212.772034,40.252502 
	C213.407578,41.310741 214.270325,42.102219 215.133087,42.893692 
	C215.133087,42.893688 215.071335,42.977859 214.785431,43.210762 
	C215.712341,44.932018 216.925156,46.420368 218.137985,47.908718 
	C218.137985,47.908714 218.028458,47.990337 217.842072,48.282837 
	C218.481537,49.348183 219.307388,50.121025 220.133240,50.893860 
	C220.133255,50.893856 220.005219,51.000340 219.778961,51.277370 
	C220.407806,52.325035 221.262924,53.095669 222.118027,53.866299 
	C222.118027,53.866299 222.177399,53.874683 221.799164,54.121498 
	C222.656067,55.873535 223.891220,57.378757 225.126389,58.883980 
	C225.126389,58.883976 225.027451,59.003693 224.789215,59.274956 
	C225.406998,60.319859 226.263046,61.093494 227.119080,61.867130 
	C227.119080,61.867130 227.158020,61.883377 226.790543,62.169708 
	C227.042313,66.989571 228.015671,71.508118 228.208206,76.059700 
	C228.628357,85.992111 228.651352,95.941330 228.836609,105.883682 
	C228.915161,106.034546 228.993713,106.185410 229.039001,106.917786 
	C229.007492,107.718117 229.009262,107.936928 229.011017,108.155731 
	C229.031036,108.327957 229.051056,108.500191 228.907959,109.258011 
	C228.774261,112.189491 228.803711,114.535393 228.833160,116.881287 
	C228.833160,116.881287 229.071182,117.311821 228.844147,117.942001 
	C228.526123,123.437904 228.435150,128.303635 228.344177,133.169357 
M165.385208,133.569824 
	C164.944260,130.399979 164.503311,127.230133 163.938309,123.256195 
	C167.154434,112.967667 166.133194,102.521088 164.930130,91.652771 
	C164.930130,91.652771 164.918716,91.197762 165.507568,90.561111 
	C165.507568,83.214729 165.507568,75.868355 165.507568,67.418030 
	C163.055054,68.417648 161.124039,69.204712 158.826141,69.736092 
	C158.621201,69.512108 158.475189,69.254707 157.706650,68.408676 
	C153.521851,68.934708 149.337051,69.460739 144.555328,69.540909 
	C142.578568,69.260956 140.601791,68.981010 138.625046,68.701065 
	C138.383804,71.129448 138.142563,73.557823 137.597672,76.711899 
	C137.479385,80.498779 137.361099,84.285667 136.978561,88.814308 
	C137.126938,91.623581 137.275314,94.432854 136.927826,97.749153 
	C136.967606,101.117676 137.007401,104.486206 136.569305,108.383354 
	C136.423538,109.541306 136.277756,110.699257 136.113785,112.718544 
	C136.152100,114.417938 136.190414,116.117332 136.133835,118.764847 
	C136.329575,124.048630 136.466415,129.336395 136.822906,134.609314 
	C136.854477,135.075897 138.319031,135.445602 139.996735,135.960907 
	C143.338974,135.681717 146.681198,135.402542 150.678513,135.046234 
	C151.117493,135.040588 151.556458,135.034927 152.565720,135.578552 
	C156.675140,135.128265 160.784546,134.677979 165.385208,133.569824 
M206.160034,122.604454 
	C206.160034,122.604454 206.369324,122.908806 205.874283,123.189659 
	C205.600159,123.451416 205.326050,123.713173 204.616287,124.626625 
	C204.704758,127.404572 204.793228,130.182510 205.378464,133.444092 
	C207.527252,133.281281 209.676056,133.118469 212.757736,133.178711 
	C216.988953,133.178711 221.220169,133.178711 225.820343,133.178711 
	C225.820343,111.912041 225.863617,91.786140 225.691681,71.662071 
	C225.683136,70.662956 223.849045,68.885979 222.786057,68.823975 
	C217.642197,68.523911 212.465317,68.555420 207.315033,68.792831 
	C206.247467,68.842049 204.339722,70.274483 204.347961,71.053246 
	C204.442535,79.989090 204.832703,88.921814 205.047577,98.732895 
	C205.026596,100.498238 205.005630,102.263588 204.919800,104.957024 
	C205.279053,110.728928 205.638306,116.500839 206.160034,122.604454 
M144.760147,64.999489 
	C145.655838,64.920464 146.551529,64.841446 148.194717,65.284760 
	C153.998718,65.551674 159.802734,65.818596 165.606735,66.085510 
	C165.844055,65.571922 166.081375,65.058327 166.318680,64.544731 
	C162.853867,60.033409 159.389038,55.522091 155.877640,50.311630 
	C151.157715,43.561813 146.437775,36.812000 141.777527,29.364435 
	C137.333893,22.323627 132.921600,15.262526 128.397034,8.274117 
	C127.955864,7.592709 126.822395,7.359526 125.423058,6.492234 
	C124.223747,6.462736 123.024445,6.433238 120.915680,6.307455 
	C113.717987,6.307455 106.520294,6.307455 98.330742,6.307455 
	C99.711617,8.690854 100.533531,10.232872 101.468567,11.702943 
	C106.709877,19.943417 111.922127,28.203346 117.263206,36.378952 
	C119.681572,40.080750 122.374321,43.603294 125.201286,47.820690 
	C128.794754,53.327015 132.388229,58.833336 136.507492,64.789658 
	C139.034973,64.828957 141.562439,64.868256 144.760147,64.999489 
M188.675537,133.943863 
	C189.484451,133.665039 190.293350,133.386215 191.835739,133.160202 
	C193.923767,133.059265 196.011780,132.958328 198.930740,132.887329 
	C202.087128,130.754700 202.130875,125.260658 199.229309,121.477966 
	C200.126465,120.236526 201.023636,118.995094 201.641037,116.974632 
	C201.416992,111.452301 201.192947,105.929977 200.969772,99.558388 
	C200.969772,89.198402 200.969772,78.838417 200.969772,68.147888 
	C191.449707,68.147888 181.819611,68.195091 172.190521,68.116264 
	C169.632248,68.095322 168.607285,69.109467 168.633865,71.641518 
	C168.797882,87.260323 168.901443,102.879761 168.989410,119.306969 
	C168.977493,121.478760 168.965591,123.650558 168.348862,126.401855 
	C168.348862,128.782913 168.348862,131.163971 168.348862,133.819962 
	C172.543503,133.819962 176.175827,133.819962 180.724930,133.920776 
	C183.155472,133.917679 185.586029,133.914581 188.675537,133.943863 
M133.526718,97.357147 
	C133.337677,95.521660 133.148636,93.686165 132.984222,90.940071 
	C133.021591,86.622276 133.058960,82.304482 133.496506,77.316757 
	C133.661652,75.214088 133.982452,73.109306 133.954041,71.009254 
	C133.915207,68.137917 132.531662,68.561012 130.209549,69.956993 
	C129.137589,69.506798 128.065613,69.056610 126.655632,68.390541 
	C126.410187,68.267700 126.150208,68.206703 125.376625,68.286835 
	C125.040222,68.301559 124.703827,68.316284 123.403687,68.165047 
	C119.510719,68.792641 115.617744,69.420235 111.213417,69.463165 
	C110.266617,68.984673 109.323143,68.097649 108.372513,68.089905 
	C96.915985,67.996651 85.458405,68.033409 73.082611,67.825851 
	C64.527962,67.825851 55.973312,67.825851 47.178070,67.825851 
	C47.178070,90.963371 47.178070,113.288307 47.178070,135.941635 
	C53.645416,135.941635 59.612743,135.941635 66.382347,136.022247 
	C68.888184,135.970734 71.394020,135.919220 74.666946,135.967728 
	C75.437447,135.947678 76.207947,135.927643 77.808151,135.857803 
	C78.420326,129.785233 79.082817,123.716446 79.539246,117.632179 
	C79.572098,117.194328 78.100853,116.643646 77.423874,115.388863 
	C77.959435,113.022751 78.901825,110.666054 78.956894,108.288811 
	C79.148315,100.025635 78.940514,91.753410 79.113800,83.489433 
	C79.146469,81.931137 80.230453,80.394875 81.797768,78.903252 
	C90.861488,79.305641 99.925209,79.708031 108.995430,80.930397 
	C109.013489,83.100830 109.031555,85.271255 108.442574,88.038033 
	C108.628273,90.715355 108.813980,93.392670 109.027039,96.732574 
	C109.052963,97.173836 109.078896,97.615089 108.947670,98.878845 
	C108.970222,100.554054 108.992775,102.229271 108.426003,104.520004 
	C108.333191,113.320358 108.240379,122.120712 108.085625,131.579376 
	C108.350365,132.383362 108.615105,133.187363 109.089523,134.799652 
	C113.489334,137.164413 119.650948,136.763519 122.740685,134.390976 
	C124.419189,134.970444 126.060547,135.718323 127.783066,136.098221 
	C133.233337,137.300278 133.860565,136.809738 133.882202,131.280762 
	C133.902191,126.178780 133.833603,121.073494 133.625046,115.976982 
	C133.596191,115.271858 132.538712,114.608818 132.002182,113.100868 
	C132.210983,109.164963 132.419800,105.229065 132.742218,100.453094 
	C132.881699,99.624443 133.021164,98.795792 133.526718,97.357147 
M120.512428,65.569763 
	C124.022858,65.569763 127.533287,65.569763 131.043716,65.569763 
	C131.186569,64.965874 131.329437,64.361977 131.472290,63.758083 
	C128.670624,60.148556 125.868942,56.539028 123.272087,52.196712 
	C118.464958,44.156975 113.657837,36.117241 108.710426,27.503838 
	C107.912582,26.649059 107.114746,25.794281 106.102448,24.253380 
	C102.683746,18.652969 99.265045,13.052561 95.545326,6.959044 
	C79.834328,26.420176 64.601265,45.289291 48.983101,64.635422 
	C56.974903,64.635422 63.918941,64.635422 71.656197,64.833206 
	C72.471352,64.839493 73.286514,64.845787 75.022003,64.944969 
	C84.995209,64.956062 94.969902,65.057716 104.940208,64.893326 
	C106.699242,64.864319 108.439949,63.723728 110.706322,62.825890 
	C113.792786,63.535736 116.879250,64.245583 120.512428,65.569763 
M81.992828,131.846115 
	C82.086472,133.420273 82.180115,134.994415 82.297768,136.972198 
	C87.947479,136.972198 93.188911,137.248734 98.377037,136.843292 
	C100.616943,136.668243 102.746658,135.083313 105.420151,133.444595 
	C105.530914,123.776062 105.687172,114.107483 105.675034,104.439102 
	C105.673943,103.568275 104.585350,102.698814 104.339691,101.186668 
	C104.558800,99.783112 104.777908,98.379555 105.379684,96.250793 
	C105.545113,93.796898 106.405441,91.114197 105.692711,88.949432 
	C104.878288,86.475807 102.885590,82.803780 101.017853,82.554703 
	C94.920975,81.741631 88.647888,82.249901 82.308189,82.249901 
	C82.250008,83.197365 82.160683,83.840591 82.178795,84.480774 
	C82.394058,92.088348 82.816162,99.695969 82.796036,107.302551 
	C82.777733,114.220642 82.283417,121.137459 81.996140,128.785324 
	C82.020035,129.513168 82.043930,130.241028 81.992828,131.846115 
M158.424652,6.409127 
	C149.319977,6.409127 140.215286,6.409127 129.898148,6.409127 
	C134.834518,13.653186 138.998642,19.763977 143.337570,26.428892 
	C143.884277,26.955353 144.430969,27.481813 145.135605,28.687643 
	C149.139587,34.750675 153.143570,40.813709 157.330673,47.448822 
	C157.911102,47.966564 158.491516,48.484303 159.226501,49.677963 
	C162.158264,54.292774 165.028000,58.949120 168.069763,63.490234 
	C168.745148,64.498489 170.015198,65.767456 171.031754,65.785713 
	C180.704102,65.959496 190.380859,65.889389 201.165085,65.889389 
	C192.398178,52.195164 184.281876,39.517193 176.011887,26.256348 
	C175.394485,25.492935 174.777084,24.729521 173.966248,23.288513 
	C171.224213,18.814032 168.581238,14.273582 165.674713,9.908628 
	C164.888351,8.727691 163.304199,8.077986 161.387589,6.915740 
	C160.645691,6.884743 159.903809,6.853745 158.424652,6.409127 
M175.175751,20.543219 
	C175.752121,21.030704 176.328506,21.518190 177.115677,22.679445 
	C185.590134,36.367905 194.039520,50.072090 202.591507,63.711941 
	C203.208405,64.695816 204.553391,65.809868 205.593964,65.844711 
	C211.629913,66.046814 217.676117,65.943504 223.751389,65.943504 
	C223.697037,64.892204 223.795425,64.502548 223.647842,64.267014 
	C212.098572,45.835030 200.556000,27.398638 188.896759,9.036338 
	C188.215744,7.963811 186.602097,6.897969 185.383514,6.851555 
	C179.467270,6.626217 173.537750,6.749801 166.463120,6.749801 
	C169.698349,11.747000 172.363403,15.863515 175.175751,20.543219 
z"/>
<path fill="#EEEEED" opacity="1.000000" stroke="none" 
	d="
M228.867065,105.457199 
	C228.651352,95.941330 228.628357,85.992111 228.208206,76.059700 
	C228.015671,71.508118 227.042313,66.989571 226.795837,62.190128 
	C228.123734,64.710403 229.808594,67.472221 229.902603,70.287178 
	C230.238327,80.339424 230.081375,90.410172 229.983261,100.472672 
	C229.968414,101.995399 229.276352,103.511536 228.867065,105.457199 
z"/>
<path fill="#FFFFFF" opacity="1.000000" stroke="none" 
	d="
M43.595364,69.134369 
	C43.980446,90.347496 43.962357,111.745171 43.880470,133.616730 
	C43.109337,134.071930 42.402000,134.053238 41.346031,133.961853 
	C41.664932,132.119888 42.895618,130.356323 42.913689,128.580414 
	C43.114697,108.827690 43.128128,89.073036 43.595364,69.134369 
z"/>
<path fill="#FFFFFF" opacity="1.000000" stroke="none" 
	d="
M187.843887,3.592201 
	C173.356369,3.982099 158.695099,3.965163 143.553772,3.727335 
	C143.073715,3.506443 143.053574,3.162856 143.053574,3.162856 
	C157.925766,3.170360 172.797958,3.177864 187.843887,3.592201 
z"/>
<path fill="#C6C6C5" opacity="1.000000" stroke="none" 
	d="
M142.585907,3.094705 
	C143.053574,3.162856 143.073715,3.506443 143.094833,3.677227 
	C132.984222,3.786985 122.852486,3.725958 112.404495,3.404841 
	C122.098236,3.105352 132.108231,3.065953 142.585907,3.094705 
z"/>
<path fill="#FFFFFF" opacity="1.000000" stroke="none" 
	d="
M195.224045,143.528305 
	C203.360672,143.100616 211.715042,143.044983 220.536194,143.044495 
	C217.558228,143.399765 214.117783,143.873383 210.667694,143.959000 
	C205.595993,144.084839 200.517426,143.933594 195.224045,143.528305 
z"/>
<path fill="#FDFDFD" opacity="1.000000" stroke="none" 
	d="
M228.702484,133.125427 
	C228.435150,128.303635 228.526123,123.437904 228.817047,118.186478 
	C229.180222,120.875755 229.776566,124.008980 229.373230,127.007744 
	C229.034729,129.524429 228.601715,131.435562 231.825562,132.500732 
	C231.013245,132.915619 230.037018,132.998550 228.702484,133.125427 
z"/>
<path fill="#EEEEED" opacity="1.000000" stroke="none" 
	d="
M218.088501,47.561951 
	C216.925156,46.420368 215.712341,44.932018 214.827789,43.180153 
	C216.117050,44.349491 217.078033,45.782337 218.088501,47.561951 
z"/>
<path fill="#EEEEED" opacity="1.000000" stroke="none" 
	d="
M225.082214,58.539398 
	C223.891220,57.378757 222.656067,55.873535 221.800323,54.151459 
	C223.132507,55.354675 224.085266,56.774746 225.082214,58.539398 
z"/>
<path fill="#EEEEED" opacity="1.000000" stroke="none" 
	d="
M228.847626,116.451309 
	C228.803711,114.535393 228.774261,112.189491 228.789398,109.489517 
	C228.843353,111.430740 228.852737,113.726036 228.847626,116.451309 
z"/>
<path fill="#EEEEED" opacity="1.000000" stroke="none" 
	d="
M227.079697,61.503185 
	C226.263046,61.093494 225.406998,60.319859 224.844025,59.218338 
	C225.771500,59.640045 226.405899,60.389641 227.079697,61.503185 
z"/>
<path fill="#EEEEED" opacity="1.000000" stroke="none" 
	d="
M220.086243,50.570450 
	C219.307388,50.121025 218.481537,49.348183 217.887115,48.231560 
	C218.758774,48.674202 219.399002,49.460621 220.086243,50.570450 
z"/>
<path fill="#EEEEED" opacity="1.000000" stroke="none" 
	d="
M222.078018,53.546509 
	C221.262924,53.095669 220.407806,52.325035 219.845398,51.226540 
	C220.771408,51.674690 221.404709,52.450706 222.078018,53.546509 
z"/>
<path fill="#EEEEED" opacity="1.000000" stroke="none" 
	d="
M215.086182,42.572247 
	C214.270325,42.102219 213.407578,41.310741 212.843826,40.210945 
	C213.774979,40.685352 214.407135,41.468079 215.086182,42.572247 
z"/>
<path fill="#EEEEED" opacity="1.000000" stroke="none" 
	d="
M213.092819,39.571251 
	C212.281433,39.044445 211.416992,38.176956 210.806549,36.953850 
	C211.720276,37.475681 212.380020,38.353127 213.092819,39.571251 
z"/>
<path fill="#EEEEED" opacity="1.000000" stroke="none" 
	d="
M210.078140,34.546364 
	C209.270630,34.099167 208.422943,33.331722 207.854523,32.229988 
	C208.768494,32.672504 209.403244,33.449310 210.078140,34.546364 
z"/>
<path fill="#EEEEED" opacity="1.000000" stroke="none" 
	d="
M210.999695,35.742004 
	C210.539658,35.860081 210.069290,35.710758 209.867691,35.225319 
	C210.420761,35.084339 210.705048,35.279472 210.999695,35.742004 
z"/>
<path fill="#EEEEED" opacity="1.000000" stroke="none" 
	d="
M208.030838,31.630581 
	C207.756607,31.839924 207.398758,31.803543 207.042267,31.410994 
	C207.344833,31.164837 207.646027,31.274847 208.030838,31.630581 
z"/>
<path fill="#EEEEED" opacity="1.000000" stroke="none" 
	d="
M229.226044,108.016312 
	C229.009262,107.936928 229.007492,107.718117 229.008347,107.171066 
	C229.154312,107.187515 229.297684,107.532204 229.226044,108.016312 
z"/>
<path fill="#E9F5F5" opacity="1.000000" stroke="none" 
	d="
M65.580070,135.941635 
	C59.612743,135.941635 53.645416,135.941635 47.178070,135.941635 
	C47.178070,113.288307 47.178070,90.963371 47.178070,67.825851 
	C55.973312,67.825851 64.527962,67.825851 73.542061,68.397751 
	C74.229034,73.921761 74.456566,78.873878 74.752396,83.952560 
	C74.820694,84.079124 74.664200,84.320465 74.292091,84.226219 
	C73.668274,84.085831 73.416565,84.039688 73.068649,83.639183 
	C72.016098,81.731453 71.059761,80.178085 70.103424,78.624718 
	C69.655357,78.700584 69.207283,78.776451 68.759216,78.852325 
	C67.470551,84.156677 66.181892,89.461029 64.838646,94.990036 
	C63.364082,93.947441 62.358124,93.236176 60.011990,91.577347 
	C60.011990,95.967110 59.551491,99.262070 60.111603,102.373283 
	C61.152306,108.153976 59.192886,114.980499 65.118195,119.400589 
	C64.856064,121.087303 64.864265,122.530388 64.766907,124.426346 
	C64.967598,128.566696 65.273834,132.254166 65.580070,135.941635 
z"/>
<path fill="#ECF5F7" opacity="1.000000" stroke="none" 
	d="
M175.028473,19.980032 
	C172.363403,15.863515 169.698349,11.747000 166.463120,6.749801 
	C173.537750,6.749801 179.467270,6.626217 185.383514,6.851555 
	C186.602097,6.897969 188.215744,7.963811 188.896759,9.036338 
	C200.556000,27.398638 212.098572,45.835030 223.647842,64.267014 
	C223.795425,64.502548 223.697037,64.892204 223.751389,65.943504 
	C217.676117,65.943504 211.629913,66.046814 205.593964,65.844711 
	C204.553391,65.809868 203.208405,64.695816 202.591507,63.711941 
	C194.039520,50.072090 185.590134,36.367905 177.365875,22.303844 
	C180.245529,20.274235 181.868637,18.135561 181.942139,14.037272 
	C179.035309,16.535900 177.031891,18.257967 175.028473,19.980032 
z"/>
<path fill="#EBF5F5" opacity="1.000000" stroke="none" 
	d="
M70.862984,64.635422 
	C63.918941,64.635422 56.974903,64.635422 48.983101,64.635422 
	C64.601265,45.289291 79.834328,26.420176 95.545326,6.959044 
	C99.265045,13.052561 102.683746,18.652969 105.925232,24.799845 
	C96.800911,35.109886 87.805031,44.829472 78.934799,54.662403 
	C76.074234,57.833420 73.544212,61.302628 70.862984,64.635422 
z"/>
<path fill="#E8F2F3" opacity="1.000000" stroke="none" 
	d="
M205.144135,97.855362 
	C204.832703,88.921814 204.442535,79.989090 204.347961,71.053246 
	C204.339722,70.274483 206.247467,68.842049 207.315033,68.792831 
	C212.465317,68.555420 217.642197,68.523911 222.786057,68.823975 
	C223.849045,68.885979 225.683136,70.662956 225.691681,71.662071 
	C225.863617,91.786140 225.820343,111.912041 225.820343,133.178711 
	C221.220169,133.178711 216.988953,133.178711 212.343719,132.660553 
	C212.287048,130.202469 212.939575,128.257339 212.905533,126.324310 
	C212.879684,124.857597 211.979538,123.406281 211.336243,121.636795 
	C211.455460,116.708138 211.841965,112.091339 211.860580,107.473061 
	C211.865067,106.357437 210.653107,105.236923 209.696548,103.961151 
	C207.976440,101.820885 206.560287,99.838120 205.144135,97.855362 
z"/>
<path fill="#E4F0EF" opacity="1.000000" stroke="none" 
	d="
M169.025085,118.498993 
	C168.901443,102.879761 168.797882,87.260323 168.633865,71.641518 
	C168.607285,69.109467 169.632248,68.095322 172.190521,68.116264 
	C181.819611,68.195091 191.449707,68.147888 200.969772,68.147888 
	C200.969772,78.838417 200.969772,89.198402 200.557831,100.050278 
	C199.352417,104.209534 198.595581,107.885307 197.755112,111.541870 
	C196.929489,115.133926 198.106110,117.309738 201.920807,117.753662 
	C201.023636,118.995094 200.126465,120.236526 198.943710,121.894737 
	C198.658112,122.311508 198.305679,122.484856 198.049606,122.398705 
	C197.546906,122.547539 197.300278,122.782524 196.926620,123.423889 
	C197.233002,126.839317 197.666412,129.848358 198.099823,132.857407 
	C196.011780,132.958328 193.923767,133.059265 191.528992,132.709290 
	C191.513885,129.500702 192.141708,126.722748 191.976929,123.992638 
	C191.870163,122.223808 190.605392,120.524864 190.084564,118.516273 
	C194.416245,115.559067 195.972870,101.301743 192.776672,97.027428 
	C191.581009,95.428482 190.648544,93.545082 189.985733,91.654755 
	C188.841370,88.390991 188.173355,84.953964 186.927963,81.735718 
	C186.560699,80.786652 184.922562,80.329376 183.596542,79.781662 
	C182.890076,80.324753 182.453903,80.732925 181.709778,80.993301 
	C179.933334,78.993782 178.464874,77.142067 176.683914,74.896301 
	C174.199875,81.103203 173.146362,86.599747 175.779205,92.673889 
	C174.687454,100.141434 172.501480,107.280281 177.044952,114.266899 
	C175.670029,115.787415 174.442841,116.999252 172.799683,118.110916 
	C171.264175,118.173485 170.144638,118.336235 169.025085,118.498993 
z"/>
<path fill="#E6F2F1" opacity="1.000000" stroke="none" 
	d="
M81.998940,128.054840 
	C82.283417,121.137459 82.777733,114.220642 82.796036,107.302551 
	C82.816162,99.695969 82.394058,92.088348 82.178795,84.480774 
	C82.160683,83.840591 82.250008,83.197365 82.308189,82.249901 
	C88.647888,82.249901 94.920975,81.741631 101.017853,82.554703 
	C102.885590,82.803780 104.878288,86.475807 105.692711,88.949432 
	C106.405441,91.114197 105.545113,93.796898 104.810989,96.635101 
	C101.462738,98.072563 98.683174,99.125725 95.903610,100.178879 
	C95.976723,100.728828 96.049843,101.278770 96.122963,101.828720 
	C98.749245,101.828720 101.375519,101.828720 104.001801,101.828720 
	C104.585350,102.698814 105.673943,103.568275 105.675034,104.439102 
	C105.687172,114.107483 105.530914,123.776062 104.778534,133.742386 
	C103.568283,133.830139 102.499275,133.607910 102.504051,133.411850 
	C102.629143,128.279648 97.739868,128.379333 94.763611,126.072281 
	C93.490692,125.227676 92.524200,124.505577 91.557709,123.783478 
	C90.985458,124.995834 90.436584,126.220284 89.821022,127.410233 
	C89.699379,127.645386 89.321136,127.747803 89.038757,127.501419 
	C88.970474,126.426575 89.091690,125.690765 88.845375,125.111130 
	C88.267380,123.750931 87.513542,122.465454 86.830872,121.149734 
	C85.796844,122.585213 84.631554,123.949379 83.793701,125.491440 
	C83.460930,126.103920 83.853989,127.110756 83.597336,127.964371 
	C82.851700,128.012070 82.425316,128.033447 81.998940,128.054840 
z"/>
<path fill="#E8F4F4" opacity="1.000000" stroke="none" 
	d="
M110.189117,63.096470 
	C108.439949,63.723728 106.699242,64.864319 104.940208,64.893326 
	C94.969902,65.057716 84.995209,64.956062 74.714966,64.615997 
	C84.294403,53.320236 94.145660,42.321239 104.111015,31.426600 
	C105.386696,30.031965 107.256264,29.180563 108.850708,28.077503 
	C113.657837,36.117241 118.464958,44.156975 122.762695,52.559647 
	C118.274559,55.409363 118.926071,59.275604 119.063950,63.301926 
	C115.482307,60.367908 112.075539,57.172886 108.668777,53.977863 
	C108.234955,54.193008 107.801140,54.408150 107.367317,54.623291 
	C108.307922,57.447685 109.248520,60.272076 110.189117,63.096470 
z"/>
<path fill="#E9F5F5" opacity="1.000000" stroke="none" 
	d="
M176.165558,26.839228 
	C184.281876,39.517193 192.398178,52.195164 201.165085,65.889389 
	C190.380859,65.889389 180.704102,65.959496 171.031754,65.785713 
	C170.015198,65.767456 168.745148,64.498489 168.069763,63.490234 
	C165.028000,58.949120 162.158264,54.292774 159.471985,49.258759 
	C160.955368,47.332508 162.263336,45.877079 163.418686,44.309193 
	C167.694916,38.505966 171.920776,32.665627 176.165558,26.839228 
z"/>
<path fill="#EAF4F4" opacity="1.000000" stroke="none" 
	d="
M126.010277,6.918282 
	C126.822395,7.359526 127.955864,7.592709 128.397034,8.274117 
	C132.921600,15.262526 137.333893,22.323627 141.425186,29.776588 
	C139.632996,30.840160 138.193130,31.491581 136.497498,32.322861 
	C134.514832,34.697052 132.787933,36.891380 130.756393,39.007141 
	C129.852707,38.220047 129.253662,37.511524 128.351013,36.443893 
	C127.136368,40.279541 126.039482,43.743347 124.942596,47.207153 
	C122.374321,43.603294 119.681572,40.080750 117.263206,36.378952 
	C111.922127,28.203346 106.709877,19.943417 101.468567,11.702943 
	C100.533531,10.232872 99.711617,8.690854 98.330742,6.307455 
	C106.520294,6.307455 113.717987,6.307455 121.299194,6.658823 
	C118.713257,10.867468 115.743797,14.724745 112.774338,18.582022 
	C113.312660,19.022339 113.850983,19.462654 114.389305,19.902969 
	C118.262962,15.574739 122.136620,11.246510 126.010277,6.918282 
z"/>
<path fill="#2C777B" opacity="1.000000" stroke="none" 
	d="
M74.664200,84.320465 
	C74.664200,84.320465 74.820694,84.079124 74.952332,83.666077 
	C76.465958,80.581345 77.847931,77.909660 79.566589,74.587090 
	C80.123161,76.465347 80.476242,77.656898 80.829330,78.848450 
	C80.230453,80.394875 79.146469,81.931137 79.113800,83.489433 
	C78.940514,91.753410 79.148315,100.025635 78.956894,108.288811 
	C78.901825,110.666054 77.959435,113.022751 77.302048,116.093407 
	C77.079536,117.228996 76.978851,117.660049 76.546524,118.245598 
	C73.156097,121.934547 69.082664,122.219315 65.388519,119.156952 
	C59.192886,114.980499 61.152306,108.153976 60.111603,102.373283 
	C59.551491,99.262070 60.011990,95.967110 60.011990,91.577347 
	C62.358124,93.236176 63.364082,93.947441 64.838646,94.990036 
	C66.181892,89.461029 67.470551,84.156677 68.759216,78.852325 
	C69.207283,78.776451 69.655357,78.700584 70.103424,78.624718 
	C71.059761,80.178085 72.016098,81.731453 73.015083,83.943634 
	C73.234566,84.953209 73.411392,85.303978 73.588226,85.654747 
	C73.946884,85.209984 74.305542,84.765228 74.664200,84.320465 
z"/>
<path fill="#E9F4F5" opacity="1.000000" stroke="none" 
	d="
M162.086227,7.184448 
	C163.304199,8.077986 164.888351,8.727691 165.674713,9.908628 
	C168.581238,14.273582 171.224213,18.814032 173.789337,23.834278 
	C172.818893,25.448690 172.018280,26.512156 171.233032,27.586853 
	C166.535919,34.015385 161.842331,40.446499 157.147568,46.876743 
	C153.143570,40.813709 149.139587,34.750675 145.354019,28.191994 
	C149.362305,23.378681 153.246887,19.139221 156.903564,14.711551 
	C158.835983,12.371704 160.371521,9.704086 162.086227,7.184448 
z"/>
<path fill="#E2F2F1" opacity="1.000000" stroke="none" 
	d="
M81.313553,78.875854 
	C80.476242,77.656898 80.123161,76.465347 79.566589,74.587090 
	C77.847931,77.909660 76.465958,80.581345 74.884033,83.539505 
	C74.456566,78.873878 74.229034,73.921761 74.001305,68.502960 
	C85.458405,68.033409 96.915985,67.996651 108.372513,68.089905 
	C109.323143,68.097649 110.266617,68.984673 111.481308,70.089264 
	C112.104904,71.488701 112.460617,72.262047 112.839241,73.404259 
	C113.569618,76.419182 114.600990,78.769142 117.795677,79.421158 
	C117.851028,80.040451 117.892113,80.393265 117.631729,80.886169 
	C116.550453,81.402214 115.770645,81.778175 114.640701,82.066063 
	C112.523361,81.355461 110.756149,80.732941 108.988930,80.110420 
	C99.925209,79.708031 90.861488,79.305641 81.313553,78.875854 
z"/>
<path fill="#E2EFED" opacity="1.000000" stroke="none" 
	d="
M165.101395,92.074112 
	C166.133194,102.521088 167.154434,112.967667 163.922150,123.883713 
	C163.774399,124.814911 163.743851,125.128433 163.507355,125.445221 
	C162.173370,125.397926 161.146393,125.357224 159.807159,125.258827 
	C159.256821,126.160500 159.018723,127.119858 158.775681,128.367874 
	C158.763138,129.040863 158.755524,129.425217 158.572327,130.033020 
	C158.273056,130.804565 158.149414,131.352661 157.668762,131.841705 
	C155.901077,131.463120 154.490417,131.143585 153.100449,130.447388 
	C153.488678,127.275406 155.523361,123.726547 150.141556,123.266930 
	C150.079102,122.679314 150.035919,122.345840 150.367950,121.905777 
	C155.195770,117.981194 153.105011,113.734055 151.344147,109.537521 
	C151.139893,109.553093 151.163071,109.962135 151.185883,109.644775 
	C150.811783,109.208099 150.414871,109.088776 149.905258,108.696335 
	C149.210388,107.988258 148.628220,107.553322 147.793274,107.071075 
	C147.371475,107.052605 147.202469,107.081444 146.996201,106.752731 
	C146.931305,106.157112 146.903702,105.919044 146.911346,105.373291 
	C149.545197,103.561165 152.194519,102.136421 154.725540,100.525757 
	C156.578110,99.346848 158.326294,97.985939 160.027573,96.592125 
	C161.777863,95.158150 163.414841,93.585869 165.101395,92.074112 
z"/>
<path fill="#E3EFEF" opacity="1.000000" stroke="none" 
	d="
M159.193039,69.991768 
	C161.124039,69.204712 163.055054,68.417648 165.507568,67.418030 
	C165.507568,75.868355 165.507568,83.214729 164.831299,90.876328 
	C156.440979,93.112846 148.726929,95.034142 141.034454,96.612686 
	C142.902267,93.537598 144.748520,90.805260 147.087280,87.344009 
	C153.118851,83.930237 154.305374,75.514809 159.193039,69.991768 
z"/>
<path fill="#E2EFEF" opacity="1.000000" stroke="none" 
	d="
M136.753281,32.142998 
	C138.193130,31.491581 139.632996,30.840160 141.395355,30.125462 
	C146.437775,36.812000 151.157715,43.561813 155.590775,50.749275 
	C153.625183,52.787979 151.946472,54.389034 150.132797,55.669502 
	C147.973129,57.117496 145.948425,58.886086 143.780594,60.253700 
	C143.046646,56.542336 142.455841,53.231949 141.721130,49.115273 
	C140.534607,51.277905 139.767990,52.675198 138.683319,53.929234 
	C136.623642,50.933033 134.881989,48.080086 133.472488,45.177628 
	C134.787506,40.799747 135.770401,36.471375 136.753281,32.142998 
z"/>
<path fill="#E9F4F4" opacity="1.000000" stroke="none" 
	d="
M143.162766,25.874771 
	C138.998642,19.763977 134.834518,13.653186 129.898148,6.409127 
	C140.215286,6.409127 149.319977,6.409127 158.619080,6.923390 
	C153.596588,13.583360 148.379684,19.729065 143.162766,25.874771 
z"/>
<path fill="#BBB4AA" opacity="1.000000" stroke="none" 
	d="
M131.957428,113.926292 
	C132.538712,114.608818 133.596191,115.271858 133.625046,115.976982 
	C133.833603,121.073494 133.902191,126.178780 133.882202,131.280762 
	C133.860565,136.809738 133.233337,137.300278 127.783066,136.098221 
	C126.060547,135.718323 124.419189,134.970444 122.406204,133.941223 
	C122.071732,133.491470 121.992455,133.030991 122.096848,132.769562 
	C122.125687,131.672195 122.050133,130.836273 121.987419,129.552460 
	C121.676758,125.332787 121.462578,121.547546 121.000351,117.792839 
	C120.493057,113.672058 121.774406,111.387222 126.628479,112.014091 
	C127.585228,112.346611 128.213547,112.573288 128.904785,113.106743 
	C129.964279,113.584442 130.960846,113.755363 131.957428,113.926292 
M126.453560,113.482239 
	C126.453560,113.482239 126.543488,113.441780 126.453560,113.482239 
z"/>
<path fill="#276756" opacity="1.000000" stroke="none" 
	d="
M131.979797,113.513580 
	C130.960846,113.755363 129.964279,113.584442 128.907272,112.700249 
	C127.618126,102.282455 125.669685,99.131577 119.510704,98.230232 
	C116.106506,97.732040 112.577545,98.086342 109.104828,98.056351 
	C109.078896,97.615089 109.052963,97.173836 109.384613,96.306274 
	C111.108521,95.440842 112.474861,95.001709 113.795761,94.577179 
	C113.647118,90.233604 113.618195,90.191063 109.049622,87.441689 
	C109.031555,85.271255 109.013489,83.100830 108.992180,80.520409 
	C110.756149,80.732941 112.523361,81.355461 114.827423,82.336502 
	C122.921661,88.022408 128.826721,94.584229 130.439545,105.489487 
	C131.725861,103.023674 132.177231,102.158417 132.628601,101.293159 
	C132.419800,105.229065 132.210983,109.164963 131.979797,113.513580 
z"/>
<path fill="#2F6C5D" opacity="1.000000" stroke="none" 
	d="
M159.009583,69.863930 
	C154.305374,75.514809 153.118851,83.930237 147.087280,87.344009 
	C144.748520,90.805260 142.902267,93.537598 140.820374,96.806816 
	C139.531052,97.309830 138.477371,97.275978 137.423691,97.242126 
	C137.275314,94.432854 137.126938,91.623581 137.348022,88.222992 
	C140.013199,85.049156 142.266342,82.427124 144.617340,79.895958 
	C146.703537,77.649887 148.898392,75.504715 151.378235,73.184593 
	C153.936829,71.690750 156.162476,70.327324 158.388107,68.963898 
	C158.475189,69.254707 158.621201,69.512108 159.009583,69.863930 
z"/>
<path fill="#295F51" opacity="1.000000" stroke="none" 
	d="
M137.175751,97.495636 
	C138.477371,97.275978 139.531052,97.309830 140.798813,97.149567 
	C148.726929,95.034142 156.440979,93.112846 164.536865,91.194656 
	C164.918716,91.197762 164.930130,91.652771 165.015762,91.863449 
	C163.414841,93.585869 161.777863,95.158150 160.027573,96.592125 
	C158.326294,97.985939 156.578110,99.346848 154.725540,100.525757 
	C152.194519,102.136421 149.545197,103.561165 146.524353,105.452057 
	C143.083817,106.510582 140.065491,107.182655 137.047180,107.854729 
	C137.007401,104.486206 136.967606,101.117676 137.175751,97.495636 
z"/>
<path fill="#DDE5E5" opacity="1.000000" stroke="none" 
	d="
M150.267746,55.990093 
	C151.946472,54.389034 153.625183,52.787979 155.614075,51.098846 
	C159.389038,55.522091 162.853867,60.033409 166.318680,64.544731 
	C166.081375,65.058327 165.844055,65.571922 165.606735,66.085510 
	C159.802734,65.818596 153.998718,65.551674 147.869965,64.634392 
	C148.452728,61.319378 149.360229,58.654736 150.267746,55.990093 
z"/>
<path fill="#0A5B5B" opacity="1.000000" stroke="none" 
	d="
M95.070030,126.194801 
	C97.739868,128.379333 102.629143,128.279648 102.504051,133.411850 
	C102.499275,133.607910 103.568283,133.830139 104.531677,134.089523 
	C102.746658,135.083313 100.616943,136.668243 98.377037,136.843292 
	C93.188911,137.248734 87.947479,136.972198 82.297768,136.972198 
	C82.180115,134.994415 82.086472,133.420273 82.478699,131.387573 
	C87.544624,130.744263 92.857033,132.432159 95.070030,126.194801 
z"/>
<path fill="#CFD0D1" opacity="1.000000" stroke="none" 
	d="
M108.780563,27.790672 
	C107.256264,29.180563 105.386696,30.031965 104.111015,31.426600 
	C94.145660,42.321239 84.294403,53.320236 74.254791,64.569550 
	C73.286514,64.845787 72.471352,64.839493 71.259590,64.734314 
	C73.544212,61.302628 76.074234,57.833420 78.934799,54.662403 
	C87.805031,44.829472 96.800911,35.109886 106.032463,25.142906 
	C107.114746,25.794281 107.912582,26.649059 108.780563,27.790672 
z"/>
<path fill="#104D3C" opacity="1.000000" stroke="none" 
	d="
M109.026245,98.467598 
	C112.577545,98.086342 116.106506,97.732040 119.510704,98.230232 
	C125.669685,99.131577 127.618126,102.282455 128.844360,112.393478 
	C128.213547,112.573288 127.585228,112.346611 126.535767,111.674500 
	C123.627861,107.017929 119.824982,105.067482 114.829773,104.534889 
	C113.733078,104.231239 112.856293,104.180084 111.612000,104.071724 
	C110.501434,103.977844 109.758385,103.941162 109.015327,103.904480 
	C108.992775,102.229271 108.970222,100.554054 109.026245,98.467598 
z"/>
<path fill="#128E79" opacity="1.000000" stroke="none" 
	d="
M125.071945,47.513924 
	C126.039482,43.743347 127.136368,40.279541 128.351013,36.443893 
	C129.253662,37.511524 129.852707,38.220047 130.754730,39.406616 
	C131.061859,40.948006 131.066010,42.011345 131.067810,43.401398 
	C132.713470,50.141026 134.361481,56.553940 135.999756,63.309998 
	C135.987228,63.881985 135.984451,64.110825 135.981689,64.339661 
	C132.388229,58.833336 128.794754,53.327015 125.071945,47.513924 
z"/>
<path fill="#C9CBCB" opacity="1.000000" stroke="none" 
	d="
M111.979500,104.128922 
	C112.856293,104.180084 113.733078,104.231239 114.812744,105.016945 
	C115.005325,112.046387 114.977028,118.341309 114.989777,124.636154 
	C115.002769,131.050232 115.464119,131.390671 121.974571,130.000351 
	C122.050133,130.836273 122.125687,131.672195 121.647232,132.727310 
	C117.022095,133.294785 112.950966,133.643066 108.879845,133.991348 
	C108.615105,133.187363 108.350365,132.383362 108.499725,131.270798 
	C111.548798,131.073669 112.847015,129.983673 112.731529,127.175613 
	C112.415680,119.496063 112.221725,111.811501 111.979500,104.128922 
z"/>
<path fill="#E8F3F3" opacity="1.000000" stroke="none" 
	d="
M111.612000,104.071724 
	C112.221725,111.811501 112.415680,119.496063 112.731529,127.175613 
	C112.847015,129.983673 111.548798,131.073669 108.530701,130.941650 
	C108.240379,122.120712 108.333191,113.320358 108.720665,104.212242 
	C109.758385,103.941162 110.501434,103.977844 111.612000,104.071724 
z"/>
<path fill="#266E5D" opacity="1.000000" stroke="none" 
	d="
M119.238831,63.040924 
	C118.926071,59.275604 118.274559,55.409363 122.660294,52.926041 
	C125.868942,56.539028 128.670624,60.148556 131.472290,63.758083 
	C131.329437,64.361977 131.186569,64.965874 131.043716,65.569763 
	C127.533287,65.569763 124.022858,65.569763 120.227135,64.997894 
	C119.707504,63.964317 119.473167,63.502621 119.238831,63.040924 
z"/>
<path fill="#14917C" opacity="1.000000" stroke="none" 
	d="
M151.045288,73.315018 
	C148.898392,75.504715 146.703537,77.649887 144.617340,79.895958 
	C142.266342,82.427124 140.013199,85.049156 137.480148,87.852112 
	C137.361099,84.285667 137.479385,80.498779 137.993317,76.061546 
	C139.575058,69.959137 139.575058,69.959137 141.520355,69.875175 
	C142.850388,72.192009 143.948624,74.105095 145.376221,75.952332 
	C147.485474,75.029327 149.265381,74.172173 151.045288,73.315018 
z"/>
<path fill="#F9BA2C" opacity="1.000000" stroke="none" 
	d="
M65.981209,135.981934 
	C65.273834,132.254166 64.967598,128.566696 65.173492,124.502274 
	C74.156555,126.276932 74.156654,126.276932 73.928024,135.380646 
	C73.923950,135.543137 73.909477,135.705353 73.899857,135.867706 
	C71.394020,135.919220 68.888184,135.970734 65.981209,135.981934 
z"/>
<path fill="#CF9E28" opacity="1.000000" stroke="none" 
	d="
M74.283401,135.917725 
	C73.909477,135.705353 73.923950,135.543137 73.928024,135.380646 
	C74.156654,126.276932 74.156555,126.276932 65.279053,124.049393 
	C64.864265,122.530388 64.856064,121.087303 65.118195,119.400589 
	C69.082664,122.219315 73.156097,121.934547 76.774292,118.590141 
	C77.215286,124.489319 77.096863,130.198456 76.978447,135.907593 
	C76.207947,135.927643 75.437447,135.947678 74.283401,135.917725 
z"/>
<path fill="#266857" opacity="1.000000" stroke="none" 
	d="
M126.993652,68.606415 
	C128.065613,69.056610 129.137589,69.506798 130.496552,70.288544 
	C131.554474,73.075623 132.325409,75.531158 133.096344,77.986687 
	C133.058960,82.304482 133.021591,86.622276 132.814056,91.525528 
	C132.440125,92.297318 132.303009,92.523933 131.888626,92.789268 
	C130.692230,91.865799 129.839752,90.943886 129.229263,89.700462 
	C129.310822,86.242905 129.150406,83.106865 128.985352,79.995003 
	C128.980728,80.019188 129.030563,80.025833 129.036713,79.670944 
	C128.696060,78.457581 128.349258,77.599098 127.838654,76.464989 
	C126.490028,74.188469 125.305206,72.187592 124.156822,69.875969 
	C124.251305,69.153824 124.309364,68.742416 124.367424,68.331009 
	C124.703827,68.316284 125.040222,68.301559 125.788193,68.372879 
	C126.447906,68.596825 126.712540,68.645988 126.993652,68.606415 
z"/>
<path fill="#1B907B" opacity="1.000000" stroke="none" 
	d="
M128.987289,90.021973 
	C129.839752,90.943886 130.692230,91.865799 132.104797,93.109673 
	C132.830139,94.943474 132.995392,96.455307 133.160645,97.967148 
	C133.021164,98.795792 132.881699,99.624443 132.685410,100.873123 
	C132.177231,102.158417 131.725861,103.023674 130.439545,105.489487 
	C128.826721,94.584229 122.921661,88.022408 115.177551,82.424576 
	C115.770645,81.778175 116.550453,81.402214 117.749191,81.219635 
	C121.469040,83.999741 124.769966,86.586449 128.211472,89.333862 
	C128.551025,89.702950 128.774841,89.879944 129.013428,90.028427 
	C129.003387,90.031311 128.987289,90.021973 128.987289,90.021973 
z"/>
<path fill="#F9B930" opacity="1.000000" stroke="none" 
	d="
M179.808151,133.819962 
	C176.175827,133.819962 172.543503,133.819962 168.348862,133.819962 
	C168.348862,131.163971 168.348862,128.782913 169.030518,126.181076 
	C171.109390,125.563705 172.506592,125.167122 174.214523,124.867287 
	C175.937378,125.054848 177.349503,125.145653 178.820694,125.642525 
	C179.189209,128.639038 179.498688,131.229507 179.808151,133.819962 
z"/>
<path fill="#FBA596" opacity="1.000000" stroke="none" 
	d="
M180.266541,133.870361 
	C179.498688,131.229507 179.189209,128.639038 178.923569,125.346352 
	C179.038315,124.448586 179.109222,124.253059 179.578033,124.043999 
	C187.960724,123.343109 187.960403,123.343109 187.995651,131.459152 
	C187.999207,132.276611 188.009445,133.094040 188.016571,133.911484 
	C185.586029,133.914581 183.155472,133.917679 180.266541,133.870361 
z"/>
<path fill="#CECFCF" opacity="1.000000" stroke="none" 
	d="
M157.239120,47.162781 
	C161.842331,40.446499 166.535919,34.015385 171.233032,27.586853 
	C172.018280,26.512156 172.818893,25.448690 173.886047,24.173075 
	C174.777084,24.729521 175.394485,25.492935 176.088715,26.547791 
	C171.920776,32.665627 167.694916,38.505966 163.418686,44.309193 
	C162.263336,45.877079 160.955368,47.332508 159.394699,48.920799 
	C158.491516,48.484303 157.911102,47.966564 157.239120,47.162781 
z"/>
<path fill="#9F9B91" opacity="1.000000" stroke="none" 
	d="
M139.118042,135.860291 
	C138.319031,135.445602 136.854477,135.075897 136.822906,134.609314 
	C136.466415,129.336395 136.329575,124.048630 136.546600,118.349060 
	C137.968735,118.960510 138.973892,119.991959 139.988693,121.013824 
	C140.997604,122.029770 142.016220,123.036087 142.941376,124.339142 
	C142.643997,125.404602 142.435822,126.177544 142.198730,127.339966 
	C141.152542,130.439728 140.135284,133.150009 139.118042,135.860291 
z"/>
<path fill="#DF8484" opacity="1.000000" stroke="none" 
	d="
M188.346054,133.927673 
	C188.009445,133.094040 187.999207,132.276611 187.995651,131.459152 
	C187.960403,123.343109 187.960724,123.343109 179.501694,123.689163 
	C178.159164,121.143700 177.396378,118.989296 181.130707,119.149582 
	C181.156769,119.355560 181.218735,119.766136 181.353729,120.139023 
	C184.103592,120.501938 187.249588,123.040260 189.220093,118.882233 
	C189.427567,118.820824 189.859497,118.794609 189.859497,118.794609 
	C190.605392,120.524864 191.870163,122.223808 191.976929,123.992638 
	C192.141708,126.722748 191.513885,129.500702 191.162262,132.682861 
	C190.293350,133.386215 189.484451,133.665039 188.346054,133.927673 
z"/>
<path fill="#CFD1D1" opacity="1.000000" stroke="none" 
	d="
M143.250168,26.151833 
	C148.379684,19.729065 153.596588,13.583360 158.987701,7.130201 
	C159.903809,6.853745 160.645691,6.884743 161.736908,7.050095 
	C160.371521,9.704086 158.835983,12.371704 156.903564,14.711551 
	C153.246887,19.139221 149.362305,23.378681 145.275055,27.852308 
	C144.430969,27.481813 143.884277,26.955353 143.250168,26.151833 
z"/>
<path fill="#317B7D" opacity="1.000000" stroke="none" 
	d="
M211.468414,121.948120 
	C211.979538,123.406281 212.879684,124.857597 212.905533,126.324310 
	C212.939575,128.257339 212.287048,130.202469 211.877274,132.549026 
	C209.676056,133.118469 207.527252,133.281281 205.159271,132.758575 
	C204.977356,129.373672 205.014633,126.674294 205.051941,123.974930 
	C205.326050,123.713173 205.600159,123.451416 206.487000,123.056641 
	C208.555939,122.598450 210.012177,122.273285 211.468414,121.948120 
z"/>
<path fill="#267E6D" opacity="1.000000" stroke="none" 
	d="
M136.244598,64.564659 
	C135.984451,64.110825 135.987228,63.881985 136.265930,63.077660 
	C137.361679,59.692280 138.181534,56.882385 139.001373,54.072487 
	C139.767990,52.675198 140.534607,51.277905 141.721130,49.115273 
	C142.455841,53.231949 143.046646,56.542336 143.816376,60.606449 
	C144.026825,62.542633 144.058380,63.725090 144.089920,64.907547 
	C141.562439,64.868256 139.034973,64.828957 136.244598,64.564659 
z"/>
<path fill="#33716B" opacity="1.000000" stroke="none" 
	d="
M139.557388,135.910599 
	C140.135284,133.150009 141.152542,130.439728 142.569153,127.365181 
	C147.671448,127.666115 150.971298,129.550003 150.023438,135.123352 
	C146.681198,135.402542 143.338974,135.681717 139.557388,135.910599 
z"/>
<path fill="#0A8F79" opacity="1.000000" stroke="none" 
	d="
M205.095856,98.294128 
	C206.560287,99.838120 207.976440,101.820885 209.670715,104.343826 
	C209.807541,108.672531 209.966721,112.507271 209.394379,116.229530 
	C209.120407,118.011269 207.460297,119.579865 206.304749,120.768471 
	C205.782547,114.870941 205.383591,109.449936 204.984650,104.028931 
	C205.005630,102.263588 205.026596,100.498238 205.095856,98.294128 
z"/>
<path fill="#ADB0AB" opacity="1.000000" stroke="none" 
	d="
M143.030579,124.046623 
	C142.016220,123.036087 140.997604,122.029770 139.988693,121.013824 
	C138.973892,119.991959 137.968735,118.960510 136.594025,117.875000 
	C136.190414,116.117332 136.152100,114.417938 136.500122,112.344429 
	C138.865280,112.262047 140.844101,112.553780 142.905914,113.232437 
	C143.300659,117.045570 143.612411,120.471771 143.702240,123.943916 
	C143.480301,123.989853 143.030579,124.046623 143.030579,124.046623 
z"/>
<path fill="#209581" opacity="1.000000" stroke="none" 
	d="
M119.063957,63.301926 
	C119.473167,63.502621 119.707504,63.964317 119.953781,64.690720 
	C116.879250,64.245583 113.792786,63.535736 110.447723,62.961182 
	C109.248520,60.272076 108.307922,57.447685 107.367317,54.623291 
	C107.801140,54.408150 108.234955,54.193008 108.668777,53.977863 
	C112.075539,57.172886 115.482307,60.367908 119.063957,63.301926 
z"/>
<path fill="#146166" opacity="1.000000" stroke="none" 
	d="
M142.941376,124.339142 
	C143.030579,124.046623 143.480301,123.989853 143.993164,124.082771 
	C145.322342,124.415573 146.138641,124.655449 147.229614,125.040512 
	C149.314285,126.106194 150.579300,126.156937 150.160843,123.521072 
	C155.523361,123.726547 153.488678,127.275406 153.054047,130.810013 
	C152.656448,132.709290 152.325943,133.869278 151.995422,135.029282 
	C151.556458,135.034927 151.117493,135.040588 150.350983,135.084793 
	C150.971298,129.550003 147.671448,127.666115 142.598083,126.975708 
	C142.435822,126.177544 142.643997,125.404602 142.941376,124.339142 
z"/>
<path fill="#275B4F" opacity="1.000000" stroke="none" 
	d="
M201.780914,117.364151 
	C198.106110,117.309738 196.929489,115.133926 197.755112,111.541870 
	C198.595581,107.885307 199.352417,104.209534 200.557388,100.474907 
	C201.192947,105.929977 201.416992,111.452301 201.780914,117.364151 
z"/>
<path fill="#D2E4E1" opacity="1.000000" stroke="none" 
	d="
M151.378235,73.184601 
	C149.265381,74.172173 147.485474,75.029327 145.332733,75.523254 
	C145.024033,73.435608 145.088135,71.711197 145.152252,69.986778 
	C149.337051,69.460739 153.521851,68.934708 158.047379,68.686287 
	C156.162476,70.327324 153.936829,71.690750 151.378235,73.184601 
z"/>
<path fill="#CFD1D1" opacity="1.000000" stroke="none" 
	d="
M125.716667,6.705256 
	C122.136620,11.246510 118.262962,15.574739 114.389305,19.902969 
	C113.850983,19.462654 113.312660,19.022339 112.774338,18.582022 
	C115.743797,14.724745 118.713257,10.867468 121.753922,6.706965 
	C123.024445,6.433238 124.223747,6.462736 125.716667,6.705256 
z"/>
<path fill="#205C4E" opacity="1.000000" stroke="none" 
	d="
M206.427994,121.244995 
	C207.460297,119.579865 209.120407,118.011269 209.394379,116.229530 
	C209.966721,112.507271 209.807541,108.672531 209.974686,104.501328 
	C210.653107,105.236923 211.865067,106.357437 211.860580,107.473061 
	C211.841965,112.091339 211.455460,116.708138 211.336243,121.636795 
	C210.012177,122.273285 208.555939,122.598450 206.734512,122.916214 
	C206.369324,122.908806 206.160034,122.604454 206.208588,122.189560 
	C206.314087,121.598114 206.371033,121.421555 206.427994,121.244995 
z"/>
<path fill="#DDECEB" opacity="1.000000" stroke="none" 
	d="
M142.822937,112.845512 
	C140.844101,112.553780 138.865280,112.262047 136.509216,111.913765 
	C136.277756,110.699257 136.423538,109.541306 136.808243,108.119041 
	C140.065491,107.182655 143.083817,106.510582 146.489120,105.759743 
	C146.903702,105.919044 146.931305,106.157112 146.885529,107.058411 
	C145.482407,109.429596 144.152679,111.137558 142.822937,112.845512 
z"/>
<path fill="#4F8F86" opacity="1.000000" stroke="none" 
	d="
M94.763611,126.072281 
	C92.857033,132.432159 87.544624,130.744263 82.516197,130.948944 
	C82.043930,130.241028 82.020035,129.513168 81.997543,128.420074 
	C82.425316,128.033447 82.851700,128.012070 83.867203,128.198029 
	C85.991302,128.240723 87.526268,128.076080 89.061234,127.911430 
	C89.321136,127.747803 89.699379,127.645386 89.821022,127.410233 
	C90.436584,126.220284 90.985458,124.995834 91.557709,123.783478 
	C92.524200,124.505577 93.490692,125.227676 94.763611,126.072281 
z"/>
<path fill="#D3CEBD" opacity="1.000000" stroke="none" 
	d="
M77.393295,135.882690 
	C77.096863,130.198456 77.215286,124.489319 77.105934,118.435638 
	C76.978851,117.660049 77.079536,117.228996 77.254578,116.471687 
	C78.100853,116.643646 79.572098,117.194328 79.539246,117.632179 
	C79.082817,123.716446 78.420326,129.785233 77.393295,135.882690 
z"/>
<path fill="#569789" opacity="1.000000" stroke="none" 
	d="
M123.885559,68.248032 
	C124.309364,68.742416 124.251305,69.153824 123.849319,69.713669 
	C121.234833,68.808044 119.186310,68.112778 119.597107,72.082153 
	C117.071709,72.431671 114.944016,72.733528 112.816330,73.035393 
	C112.460617,72.262047 112.104904,71.488701 111.736984,70.381592 
	C115.617744,69.420235 119.510719,68.792641 123.885559,68.248032 
z"/>
<path fill="#DFEEEC" opacity="1.000000" stroke="none" 
	d="
M108.746094,87.739861 
	C113.618195,90.191063 113.647118,90.233604 113.795761,94.577179 
	C112.474861,95.001709 111.108521,95.440842 109.370934,95.974991 
	C108.813980,93.392670 108.628273,90.715355 108.746094,87.739861 
z"/>
<path fill="#0D5054" opacity="1.000000" stroke="none" 
	d="
M198.305679,122.484856 
	C198.305679,122.484856 198.658112,122.311508 198.837143,122.233505 
	C202.130875,125.260658 202.087128,130.754700 198.515289,132.872375 
	C197.666412,129.848358 197.233002,126.839317 197.166229,123.414963 
	C197.886810,122.972801 198.144424,122.801201 198.305679,122.484856 
z"/>
<path fill="#285C4B" opacity="1.000000" stroke="none" 
	d="
M173.903809,124.770538 
	C172.506592,125.167122 171.109390,125.563705 169.332932,125.891319 
	C168.965591,123.650558 168.977493,121.478760 169.007248,118.902977 
	C170.144638,118.336235 171.264175,118.173485 172.870560,118.393890 
	C173.539520,120.774879 173.721664,122.772705 173.903809,124.770538 
z"/>
<path fill="#346C5E" opacity="1.000000" stroke="none" 
	d="
M108.984680,134.395508 
	C112.950966,133.643066 117.022095,133.294785 121.542831,132.988739 
	C121.992455,133.030991 122.071732,133.491470 122.123550,133.719849 
	C119.650948,136.763519 113.489334,137.164413 108.984680,134.395508 
z"/>
<path fill="#569688" opacity="1.000000" stroke="none" 
	d="
M144.853790,69.763840 
	C145.088135,71.711197 145.024033,73.435608 145.003387,75.589104 
	C143.948624,74.105095 142.850388,72.192009 141.520355,69.875175 
	C139.575058,69.959137 139.575058,69.959137 138.145142,75.698700 
	C138.142563,73.557823 138.383804,71.129448 138.625031,68.701065 
	C140.601791,68.981010 142.578568,69.260956 144.853790,69.763840 
z"/>
<path fill="#215C4F" opacity="1.000000" stroke="none" 
	d="
M144.425034,64.953522 
	C144.058380,63.725090 144.026825,62.542633 143.959503,61.007423 
	C145.948425,58.886086 147.973129,57.117496 150.132797,55.669502 
	C149.360229,58.654736 148.452728,61.319378 147.496216,64.373222 
	C146.551529,64.841446 145.655838,64.920464 144.425034,64.953522 
z"/>
<path fill="#39756F" opacity="1.000000" stroke="none" 
	d="
M152.280579,135.303925 
	C152.325943,133.869278 152.656448,132.709290 153.033356,131.186676 
	C154.490417,131.143585 155.901077,131.463120 157.786194,132.212799 
	C160.471741,133.171188 162.682861,133.699432 164.893967,134.227692 
	C160.784546,134.677979 156.675140,135.128265 152.280579,135.303925 
z"/>
<path fill="#225648" opacity="1.000000" stroke="none" 
	d="
M104.170746,101.507690 
	C101.375519,101.828720 98.749245,101.828720 96.122963,101.828720 
	C96.049843,101.278770 95.976723,100.728828 95.903610,100.178879 
	C98.683174,99.125725 101.462738,98.072563 104.619659,96.997696 
	C104.777908,98.379555 104.558800,99.783112 104.170746,101.507690 
z"/>
<path fill="#CFD0D1" opacity="1.000000" stroke="none" 
	d="
M175.102112,20.261627 
	C177.031891,18.257967 179.035309,16.535900 181.942139,14.037272 
	C181.868637,18.135561 180.245529,20.274235 177.260468,21.966961 
	C176.328506,21.518190 175.752121,21.030704 175.102112,20.261627 
z"/>
<path fill="#DDC688" opacity="1.000000" stroke="none" 
	d="
M165.139587,133.898758 
	C162.682861,133.699432 160.471741,133.171188 158.143188,132.271851 
	C158.149414,131.352661 158.273056,130.804565 158.699127,130.426056 
	C159.519470,131.349457 159.935318,132.617599 160.577576,132.745041 
	C161.746582,132.977066 164.121765,132.582031 164.132065,132.361588 
	C164.239304,130.068298 163.975327,127.757652 163.814331,125.451820 
	C163.743851,125.128433 163.774399,124.814911 163.984161,124.285767 
	C164.503311,127.230133 164.944260,130.399979 165.139587,133.898758 
z"/>
<path fill="#769A91" opacity="1.000000" stroke="none" 
	d="
M133.296417,77.651718 
	C132.325409,75.531158 131.554474,73.075623 130.855316,70.311905 
	C132.531662,68.561012 133.915207,68.137917 133.954041,71.009254 
	C133.982452,73.109306 133.661652,75.214088 133.296417,77.651718 
z"/>
<path fill="#559E94" opacity="1.000000" stroke="none" 
	d="
M206.304749,120.768471 
	C206.371033,121.421555 206.314087,121.598114 206.127350,122.023712 
	C205.638306,116.500839 205.279053,110.728928 204.952209,104.492981 
	C205.383591,109.449936 205.782547,114.870941 206.304749,120.768471 
z"/>
<path fill="#559E94" opacity="1.000000" stroke="none" 
	d="
M204.834106,124.300774 
	C205.014633,126.674294 204.977356,129.373672 204.910889,132.516754 
	C204.793228,130.182510 204.704758,127.404572 204.834106,124.300774 
z"/>
<path fill="#769A91" opacity="1.000000" stroke="none" 
	d="
M133.343689,97.662148 
	C132.995392,96.455307 132.830139,94.943474 132.448730,93.111229 
	C132.303009,92.523933 132.440125,92.297318 132.801727,91.980827 
	C133.148636,93.686165 133.337677,95.521660 133.343689,97.662148 
z"/>
<path fill="#569789" opacity="1.000000" stroke="none" 
	d="
M126.824646,68.498474 
	C126.712540,68.645988 126.447906,68.596825 126.037727,68.333237 
	C126.150208,68.206703 126.410187,68.267700 126.824646,68.498474 
z"/>
<path fill="#E2F2F1" opacity="1.000000" stroke="none" 
	d="
M74.292091,84.226219 
	C74.305542,84.765228 73.946884,85.209984 73.588226,85.654747 
	C73.411392,85.303978 73.234566,84.953209 73.111298,84.297989 
	C73.416565,84.039688 73.668274,84.085831 74.292091,84.226219 
z"/>
<path fill="#255E4F" opacity="1.000000" stroke="none" 
	d="
M181.218735,119.766136 
	C181.218735,119.766136 181.156769,119.355560 181.070389,118.815804 
	C179.720230,116.836777 178.456451,115.397499 177.192673,113.958229 
	C172.501480,107.280281 174.687454,100.141434 176.068207,92.424011 
	C182.227371,90.359978 181.226517,85.272308 182.017746,81.141106 
	C182.453903,80.732925 182.890076,80.324753 183.765625,80.189743 
	C184.460861,88.335129 184.716751,96.207352 184.686340,104.374130 
	C184.285095,108.587151 184.381699,112.530258 183.929886,116.409492 
	C183.789215,117.617249 182.164215,118.652115 181.218735,119.766136 
z"/>
<path fill="#297060" opacity="1.000000" stroke="none" 
	d="
M184.972626,104.079582 
	C184.716751,96.207352 184.460861,88.335129 184.035919,80.054817 
	C184.922562,80.329376 186.560699,80.786652 186.927963,81.735718 
	C188.173355,84.953964 188.841370,88.390991 189.985733,91.654755 
	C190.648544,93.545082 191.581009,95.428482 192.776672,97.027428 
	C195.972870,101.301743 194.416245,115.559067 190.084564,118.516273 
	C189.859497,118.794609 189.427567,118.820824 188.823639,118.837807 
	C187.133301,117.525879 185.294159,116.293190 185.109543,114.848984 
	C184.657257,111.311172 184.968582,107.675735 184.972626,104.079582 
z"/>
<path fill="#2C7968" opacity="1.000000" stroke="none" 
	d="
M181.709778,80.993301 
	C181.226517,85.272308 182.227371,90.359978 176.054306,92.022903 
	C173.146362,86.599747 174.199875,81.103203 176.683914,74.896301 
	C178.464874,77.142067 179.933334,78.993782 181.709778,80.993301 
z"/>
<path fill="#25917C" opacity="1.000000" stroke="none" 
	d="
M177.044952,114.266899 
	C178.456451,115.397499 179.720230,116.836777 181.044342,118.609833 
	C177.396378,118.989296 178.159164,121.143700 179.103790,123.702698 
	C179.109222,124.253059 179.038315,124.448586 178.864517,124.940292 
	C177.349503,125.145653 175.937378,125.054848 174.214523,124.867287 
	C173.721664,122.772705 173.539520,120.774879 173.286514,118.494072 
	C174.442841,116.999252 175.670029,115.787415 177.044952,114.266899 
z"/>
<path fill="#898B87" opacity="1.000000" stroke="none" 
	d="
M198.049606,122.398705 
	C198.144424,122.801201 197.886810,122.972801 197.293259,123.008591 
	C197.300278,122.782524 197.546906,122.547539 198.049606,122.398705 
z"/>
<path fill="#248B79" opacity="1.000000" stroke="none" 
	d="
M89.038757,127.501419 
	C87.526268,128.076080 85.991302,128.240723 84.186462,128.171707 
	C83.853989,127.110756 83.460930,126.103920 83.793701,125.491440 
	C84.631554,123.949379 85.796844,122.585213 86.830872,121.149734 
	C87.513542,122.465454 88.267380,123.750931 88.845375,125.111130 
	C89.091690,125.690765 88.970474,126.426575 89.038757,127.501419 
z"/>
<path fill="#377162" opacity="1.000000" stroke="none" 
	d="
M131.070160,43.074692 
	C131.066010,42.011345 131.061859,40.948006 131.059372,39.485184 
	C132.787933,36.891380 134.514832,34.697052 136.497498,32.322861 
	C135.770401,36.471375 134.787506,40.799747 133.229858,44.995140 
	C132.126785,44.266335 131.598465,43.670513 131.070160,43.074692 
z"/>
<path fill="#519F8F" opacity="1.000000" stroke="none" 
	d="
M128.070892,89.173157 
	C124.769966,86.586449 121.469040,83.999741 118.050659,81.079559 
	C117.892113,80.393265 117.851028,80.040451 118.120956,79.495590 
	C119.292091,79.482765 120.152214,79.661980 121.298256,80.057083 
	C123.913620,81.449089 126.243073,82.625221 128.989990,84.012123 
	C128.989990,82.526497 128.989990,81.248657 128.989990,79.970818 
	C129.150406,83.106865 129.310822,86.242905 129.229263,89.700462 
	C128.987289,90.021973 129.003387,90.031311 128.886414,89.851929 
	C128.574799,89.452614 128.341949,89.286156 128.070892,89.173157 
z"/>
<path fill="#2B6D5B" opacity="1.000000" stroke="none" 
	d="
M121.012344,79.841202 
	C120.152214,79.661980 119.292091,79.482765 118.106689,79.229111 
	C114.600990,78.769142 113.569618,76.419182 112.839241,73.404259 
	C114.944016,72.733528 117.071709,72.431671 119.604324,72.065857 
	C120.009247,72.001915 119.973206,71.997612 119.990334,72.278046 
	C120.324944,73.004440 120.642418,73.450401 120.970795,74.323334 
	C120.991913,76.447258 121.002136,78.144234 121.012344,79.841202 
z"/>
<path fill="#16907B" opacity="1.000000" stroke="none" 
	d="
M142.905914,113.232437 
	C144.152679,111.137558 145.482407,109.429596 146.922821,107.415955 
	C147.202469,107.081444 147.371475,107.052605 147.757492,107.460602 
	C147.634644,113.563393 147.294785,119.229362 146.954941,124.895325 
	C146.138641,124.655449 145.322342,124.415573 144.215118,124.036835 
	C143.612411,120.471771 143.300659,117.045570 142.905914,113.232437 
z"/>
<path fill="#296E61" opacity="1.000000" stroke="none" 
	d="
M147.229614,125.040512 
	C147.294785,119.229362 147.634644,113.563393 148.010284,107.507904 
	C148.628220,107.553322 149.210388,107.988258 150.093201,108.865204 
	C150.650253,109.525520 150.906662,109.743828 151.163071,109.962135 
	C151.163071,109.962135 151.139893,109.553093 151.190552,109.991989 
	C150.825058,114.291374 150.408905,118.151871 149.992737,122.012367 
	C150.035919,122.345840 150.079102,122.679314 150.141556,123.266930 
	C150.579300,126.156937 149.314285,126.106194 147.229614,125.040512 
z"/>
<path fill="#FCB825" opacity="1.000000" stroke="none" 
	d="
M163.507355,125.445221 
	C163.975327,127.757652 164.239304,130.068298 164.132065,132.361588 
	C164.121765,132.582031 161.746582,132.977066 160.577576,132.745041 
	C159.935318,132.617599 159.519470,131.349457 158.874725,130.202591 
	C158.755524,129.425217 158.763138,129.040863 158.884399,128.074341 
	C159.371841,126.766930 159.745621,126.041725 160.119400,125.316521 
	C161.146393,125.357224 162.173370,125.397926 163.507355,125.445221 
z"/>
<path fill="#1B5245" opacity="1.000000" stroke="none" 
	d="
M150.367950,121.905777 
	C150.408905,118.151871 150.825058,114.291374 151.394806,109.976410 
	C153.105011,113.734055 155.195770,117.981194 150.367950,121.905777 
z"/>
<path fill="#DDC688" opacity="1.000000" stroke="none" 
	d="
M159.807159,125.258827 
	C159.745621,126.041725 159.371841,126.766930 158.889343,127.785683 
	C159.018723,127.119858 159.256821,126.160500 159.807159,125.258827 
z"/>
<path fill="#1B5245" opacity="1.000000" stroke="none" 
	d="
M151.185883,109.644775 
	C150.906662,109.743828 150.650253,109.525520 150.205902,109.138336 
	C150.414871,109.088776 150.811783,109.208099 151.185883,109.644775 
z"/>
<path fill="#12AE96" opacity="1.000000" stroke="none" 
	d="
M131.067810,43.401402 
	C131.598465,43.670513 132.126785,44.266335 132.897736,45.044647 
	C134.881989,48.080086 136.623642,50.933033 138.683319,53.929237 
	C138.181534,56.882385 137.361679,59.692280 136.275665,62.734512 
	C134.361481,56.553940 132.713470,50.141026 131.067810,43.401402 
z"/>
<path fill="#E8F3F3" opacity="1.000000" stroke="none" 
	d="
M121.987419,129.552460 
	C115.464119,131.390671 115.002769,131.050232 114.989777,124.636154 
	C114.977028,118.341309 115.005325,112.046387 115.032646,105.269440 
	C119.824982,105.067482 123.627861,107.017929 126.207336,111.568649 
	C121.774406,111.387222 120.493057,113.672058 121.000351,117.792839 
	C121.462578,121.547546 121.676758,125.332787 121.987419,129.552460 
z"/>
<path fill="#276756" opacity="1.000000" stroke="none" 
	d="
M126.498520,113.462006 
	C126.543488,113.441780 126.453560,113.482239 126.498520,113.462006 
z"/>
<path fill="#0B8F77" opacity="1.000000" stroke="none" 
	d="
M121.298264,80.057083 
	C121.002136,78.144234 120.991913,76.447258 120.930038,74.048889 
	C120.576653,72.897530 120.274933,72.447571 119.973206,71.997612 
	C119.973206,71.997612 120.009247,72.001915 120.002029,72.018204 
	C119.186310,68.112778 121.234833,68.808044 123.812897,70.024414 
	C125.305206,72.187592 126.490028,74.188469 127.831665,76.827560 
	C128.335846,78.319115 128.683212,79.172478 129.030563,80.025833 
	C129.030563,80.025833 128.980728,80.019188 128.985352,79.995003 
	C128.989990,81.248657 128.989990,82.526497 128.989990,84.012123 
	C126.243073,82.625221 123.913620,81.449089 121.298264,80.057083 
z"/>
<path fill="#519F8F" opacity="1.000000" stroke="none" 
	d="
M129.036713,79.670944 
	C128.683212,79.172478 128.335846,78.319115 127.995468,77.103195 
	C128.349258,77.599098 128.696060,78.457581 129.036713,79.670944 
z"/>
<path fill="#266857" opacity="1.000000" stroke="none" 
	d="
M128.211472,89.333862 
	C128.341949,89.286156 128.574799,89.452614 128.896454,89.849045 
	C128.774841,89.879944 128.551025,89.702950 128.211472,89.333862 
z"/>
<path fill="#648D81" opacity="1.000000" stroke="none" 
	d="
M184.686340,104.374130 
	C184.968582,107.675735 184.657257,111.311172 185.109543,114.848984 
	C185.294159,116.293190 187.133301,117.525879 188.616180,118.899216 
	C187.249588,123.040260 184.103592,120.501938 181.353729,120.139023 
	C182.164215,118.652115 183.789215,117.617249 183.929886,116.409492 
	C184.381699,112.530258 184.285095,108.587151 184.686340,104.374130 
z"/>
<path fill="#569789" opacity="1.000000" stroke="none" 
	d="
M119.990341,72.278046 
	C120.274933,72.447571 120.576653,72.897530 120.919128,73.621933 
	C120.642418,73.450401 120.324944,73.004440 119.990341,72.278046 
z"/>
</svg>